<?xml version="1.0" standalone="no"?>
<!DOCTYPE svg PUBLIC "-//W3C//DTD SVG 20010904//EN"
 "http://www.w3.org/TR/2001/REC-SVG-20010904/DTD/svg10.dtd">
<svg version="1.0" xmlns="http://www.w3.org/2000/svg"
 width="5000.000000pt" height="5000.000000pt" viewBox="0 0 5000.000000 5000.000000"
 preserveAspectRatio="xMidYMid meet">
<metadata>
Created by potrace 1.16, written by Peter Selinger 2001-2019
</metadata>
<g transform="translate(0.000000,5000.000000) scale(0.100000,-0.100000)"
fill="#000000" stroke="none">
<path d="M24960 47274 c-543 -19 -1006 -46 -1425 -84 -2709 -248 -5343 -998
-7765 -2210 -2811 -1407 -5278 -3405 -7232 -5860 -2631 -3306 -4224 -7344
-4552 -11540 -49 -626 -60 -926 -60 -1660 0 -641 5 -834 34 -1305 260 -4167
1742 -8157 4268 -11495 573 -757 1164 -1439 1842 -2124 793 -802 1535 -1448
2420 -2111 3353 -2508 7357 -3989 11555 -4274 557 -38 791 -45 1475 -45 684 0
918 7 1475 45 2890 196 5696 959 8275 2249 2811 1407 5278 3405 7232 5860
2631 3306 4224 7344 4552 11540 49 626 60 926 60 1660 0 641 -5 834 -34 1305
-260 4167 -1742 8157 -4268 11495 -573 757 -1164 1439 -1842 2124 -793 802
-1535 1448 -2420 2111 -3213 2403 -7029 3867 -11045 4235 -258 23 -720 55
-1025 70 -208 11 -1326 21 -1520 14z m1415 -2494 c1839 -102 3428 -398 5085
-950 2516 -837 4787 -2166 6760 -3959 236 -214 746 -715 989 -971 1553 -1639
2808 -3570 3678 -5660 716 -1717 1172 -3541 1347 -5380 63 -666 81 -1045 81
-1780 0 -735 -18 -1114 -81 -1780 -349 -3668 -1800 -7182 -4148 -10045 -430
-524 -818 -947 -1352 -1475 -2698 -2666 -6177 -4460 -9945 -5129 -791 -140
-1520 -222 -2439 -273 -299 -16 -1441 -16 -1740 0 -1098 61 -1951 168 -2934
368 -1418 289 -2846 758 -4166 1371 -1742 809 -3335 1868 -4770 3172 -236 214
-746 715 -989 971 -1553 1639 -2808 3570 -3678 5660 -716 1717 -1172 3541
-1347 5380 -63 666 -81 1045 -81 1780 0 735 18 1114 81 1780 349 3668 1800
7182 4148 10045 430 524 818 947 1352 1475 2923 2889 6758 4748 10869 5269
587 75 1160 120 1850 145 182 7 1246 -3 1430 -14z"/>
<path d="M25610 40157 c-3 -2 -121 -7 -263 -11 -142 -4 -263 -9 -270 -11 -7
-2 -57 -6 -112 -9 -320 -18 -836 -76 -1200 -137 -2081 -345 -3761 -1194 -5130
-2591 -1049 -1070 -1737 -2272 -2070 -3619 -113 -456 -172 -835 -220 -1401 -4
-52 -3 -78 4 -78 9 0 233 -28 1336 -165 198 -24 668 -83 1045 -130 377 -46
1049 -130 1493 -185 444 -55 815 -100 825 -100 14 0 26 36 66 203 475 1978
1407 3241 2872 3890 466 207 1027 349 1564 397 69 6 145 13 170 15 130 13 577
17 775 6 1470 -79 2536 -565 3332 -1521 422 -507 674 -1110 744 -1780 17 -163
15 -536 -5 -696 -47 -393 -147 -725 -320 -1069 -175 -345 -321 -548 -596 -829
-440 -448 -1122 -1043 -2330 -2031 -428 -350 -701 -582 -970 -826 -1008 -912
-1707 -1742 -2112 -2509 -308 -582 -531 -1293 -652 -2080 -109 -706 -136
-1322 -112 -2532 l8 -398 2334 0 2334 0 0 373 c0 1041 88 1814 265 2338 142
420 452 852 1017 1421 325 326 640 610 1188 1068 1030 862 1752 1513 2431
2190 577 576 954 997 1290 1442 648 859 1056 1816 1203 2818 15 102 39 327 51
480 9 120 6 631 -5 805 -89 1394 -589 2654 -1509 3805 -349 437 -851 947
-1291 1311 -1355 1121 -3042 1802 -5065 2044 -311 37 -674 69 -935 81 -69 3
-143 7 -165 9 -68 6 -1010 17 -1015 12z"/>
<path d="M23480 15615 l0 -2575 2575 0 2575 0 0 2575 0 2575 -2575 0 -2575 0
0 -2575z"/>
</g>
</svg>
