<?xml version="1.0" standalone="no"?>
<!DOCTYPE svg PUBLIC "-//W3C//DTD SVG 20010904//EN"
 "http://www.w3.org/TR/2001/REC-SVG-20010904/DTD/svg10.dtd">
<svg version="1.0" xmlns="http://www.w3.org/2000/svg"
 width="800.000000pt" height="800.000000pt" viewBox="0 0 800.000000 800.000000"
 preserveAspectRatio="xMidYMid meet">
<metadata>
Created by potrace 1.16, written by Peter Selinger 2001-2019
</metadata>
<g transform="translate(0.000000,800.000000) scale(0.100000,-0.100000)"
fill="#000000" stroke="none">
<path d="M1700 7573 c-700 -91 -1169 -576 -1265 -1309 -19 -147 -19 -420 0
-566 50 -378 190 -682 420 -914 241 -242 539 -373 927 -405 285 -24 601 31
827 145 l70 36 125 -110 c263 -229 290 -245 426 -245 85 0 100 3 141 27 50 30
98 79 126 131 13 24 18 55 18 127 0 148 -18 173 -333 456 l-43 39 49 83 c238
400 290 1039 126 1532 -77 230 -180 405 -332 562 -193 200 -432 328 -725 389
-82 17 -144 22 -312 24 -115 2 -226 1 -245 -2z m405 -658 c207 -53 390 -225
473 -443 65 -169 77 -245 77 -492 0 -234 -8 -291 -61 -452 -17 -52 -24 -57
-45 -31 -27 32 -162 134 -213 160 -40 21 -70 27 -138 31 -80 4 -93 2 -142 -22
-105 -51 -160 -143 -160 -266 -1 -100 25 -151 131 -261 46 -47 83 -88 83 -91
0 -11 -127 -28 -202 -28 -197 0 -353 63 -483 194 -91 93 -134 160 -181 284
-91 243 -107 554 -43 822 81 342 295 563 588 610 76 12 242 4 316 -15z"/>
<path d="M6855 6134 c-132 -33 -228 -123 -280 -259 -17 -46 -229 -284 -1615
-1817 -877 -970 -1629 -1799 -1671 -1843 -72 -76 -100 -121 -508 -830 -414
-720 -431 -752 -431 -801 0 -118 125 -200 231 -151 14 7 336 238 715 514 544
396 700 514 739 561 28 33 782 869 1677 1858 1302 1440 1637 1804 1674 1824
64 33 127 99 160 167 22 45 29 74 32 144 8 164 -25 220 -251 423 -198 179
-249 208 -370 212 -45 2 -91 1 -102 -2z m-34 -780 c115 -104 128 -118 116
-133 -77 -89 -3071 -3397 -3077 -3399 -10 -4 -255 218 -255 231 0 8 3075 3416
3084 3417 2 0 61 -52 132 -116z m-3321 -3671 c54 -49 97 -92 96 -97 -2 -9
-529 -396 -534 -391 -2 2 275 491 314 553 8 12 17 22 20 22 3 0 50 -39 104
-87z"/>
<path d="M4024 5120 c-112 -23 -215 -108 -267 -218 -29 -60 -32 -77 -32 -157
0 -82 3 -97 33 -157 73 -150 240 -238 395 -209 158 29 278 150 307 309 44 245
-196 483 -436 432z"/>
</g>
</svg>
