<?xml version="1.0" standalone="no"?>
<!DOCTYPE svg PUBLIC "-//W3C//DTD SVG 20010904//EN"
 "http://www.w3.org/TR/2001/REC-SVG-20010904/DTD/svg10.dtd">
<svg version="1.0" xmlns="http://www.w3.org/2000/svg"
 width="474.000000pt" height="474.000000pt" viewBox="0 0 474.000000 474.000000"
 preserveAspectRatio="xMidYMid meet">
<metadata>
Created by potrace 1.16, written by Peter Selinger 2001-2019
</metadata>
<g transform="translate(0.000000,474.000000) scale(0.100000,-0.100000)"
fill="#000000" stroke="none">
<path d="M2133 4734 c4 -4 -15 -17 -41 -29 -49 -23 -110 -82 -137 -134 -8 -17
-28 -120 -44 -228 -31 -219 -44 -257 -112 -323 -86 -83 -227 -103 -334 -47
-27 15 -102 67 -165 117 -149 117 -204 144 -290 143 -107 0 -144 -23 -312
-190 -167 -166 -191 -206 -191 -308 0 -33 5 -77 12 -97 7 -21 62 -104 123
-185 147 -198 153 -209 153 -308 0 -94 -21 -149 -79 -208 -68 -69 -106 -81
-375 -117 -87 -11 -152 -25 -177 -38 -52 -27 -107 -83 -129 -132 -10 -22 -22
-40 -27 -40 -4 0 -8 -109 -8 -242 0 -133 3 -238 6 -235 4 4 17 -15 29 -41 28
-59 97 -124 156 -145 24 -8 116 -25 204 -36 190 -25 219 -33 273 -69 90 -60
139 -164 129 -272 -6 -75 -26 -111 -156 -284 -60 -80 -115 -163 -122 -184 -7
-20 -13 -65 -12 -99 1 -102 30 -147 192 -308 163 -162 205 -188 311 -189 85 0
133 24 302 152 153 117 186 134 268 139 85 6 161 -21 220 -80 67 -67 85 -118
110 -317 29 -222 50 -274 140 -342 19 -15 47 -30 63 -33 15 -4 27 -11 27 -16
0 -5 102 -9 230 -9 127 0 230 3 230 8 0 4 20 15 45 25 55 23 128 102 148 160
8 23 25 119 37 212 24 189 45 249 103 307 59 59 120 83 212 83 99 0 132 -17
295 -145 147 -116 202 -143 289 -143 108 -1 145 22 314 191 168 169 191 206
190 312 0 36 -7 82 -17 103 -8 21 -63 101 -120 177 -143 188 -151 205 -151
310 0 91 10 120 66 191 54 68 109 88 331 120 162 23 208 33 242 53 54 32 110
93 127 140 7 20 17 36 21 36 4 0 8 104 8 230 0 133 -4 230 -9 230 -5 0 -12 14
-16 30 -10 45 -96 134 -152 157 -29 12 -119 29 -223 42 -199 26 -255 45 -319
111 -56 58 -84 136 -78 220 5 84 23 118 153 290 58 77 112 157 121 177 25 60
21 159 -9 224 -35 75 -285 323 -360 358 -61 28 -150 33 -211 12 -22 -7 -104
-62 -184 -122 -176 -133 -209 -151 -293 -156 -83 -6 -159 21 -218 77 -69 67
-82 103 -114 323 -15 109 -35 211 -44 228 -26 52 -87 111 -136 134 -26 12 -45
25 -41 29 3 3 -103 6 -237 6 -134 0 -240 -3 -237 -6z m437 -1438 c323 -69 595
-315 699 -632 130 -398 -20 -841 -364 -1074 -93 -63 -139 -85 -244 -120 -530
-173 -1093 152 -1218 703 -26 116 -22 308 10 429 131 496 619 799 1117 694z"/>
<path d="M2228 2821 c-82 -26 -135 -61 -199 -128 -98 -102 -134 -201 -127
-347 8 -150 61 -251 185 -352 73 -59 148 -86 260 -92 179 -9 322 64 421 214
92 139 96 348 9 497 -31 52 -133 150 -185 176 -104 53 -256 66 -364 32z"/>
</g>
</svg>
