<?xml version="1.0" standalone="no"?>
<!DOCTYPE svg PUBLIC "-//W3C//DTD SVG 20010904//EN"
 "http://www.w3.org/TR/2001/REC-SVG-20010904/DTD/svg10.dtd">
<svg version="1.0" xmlns="http://www.w3.org/2000/svg"
 width="2000.000000pt" height="2000.000000pt" viewBox="0 0 2000.000000 2000.000000"
 preserveAspectRatio="xMidYMid meet">
<metadata>
Created by potrace 1.16, written by Peter Selinger 2001-2019
</metadata>
<g transform="translate(0.000000,2000.000000) scale(0.100000,-0.100000)"
fill="#000000" stroke="none">
<path d="M11710 15079 c-800 -70 -1592 -385 -2220 -882 -92 -73 -302 -258
-297 -263 2 -2 70 -23 153 -48 198 -59 470 -160 595 -221 l36 -17 86 63 c413
306 981 538 1497 613 318 46 724 47 1020 3 392 -60 712 -162 1065 -342 333
-169 610 -371 874 -636 775 -778 1133 -1863 971 -2947 -66 -439 -195 -803
-440 -1241 l-112 -201 92 -342 c51 -189 125 -464 165 -613 48 -179 69 -271 61
-273 -6 -1 -122 27 -256 63 -591 160 -952 255 -965 255 -7 0 -78 -36 -156 -81
-273 -154 -462 -242 -684 -319 -138 -48 -383 -111 -501 -130 l-82 -13 -37
-101 c-61 -166 -152 -372 -231 -525 l-74 -144 103 7 c556 38 1127 198 1626
457 l134 69 166 -44 c358 -96 1714 -459 1850 -497 79 -21 146 -37 149 -34 2 2
-10 57 -27 122 -18 65 -91 336 -162 603 -72 267 -175 654 -231 860 -55 206
-113 420 -127 475 l-27 100 82 165 c102 205 188 413 247 595 336 1036 258
2163 -216 3130 -391 798 -1001 1431 -1787 1856 -483 261 -1005 418 -1580 474
-158 16 -600 18 -760 4z"/>
<path d="M7635 13303 c-116 -8 -339 -36 -465 -59 -939 -172 -1800 -666 -2421
-1389 -248 -288 -481 -653 -635 -994 -525 -1163 -495 -2496 81 -3626 l82 -160
-13 -45 c-7 -25 -101 -376 -209 -780 -108 -404 -233 -869 -277 -1033 -44 -164
-78 -301 -75 -304 3 -2 106 22 229 56 123 33 410 110 638 171 228 61 573 153
765 205 193 52 390 105 439 118 l90 24 170 -86 c970 -489 2104 -584 3131 -261
402 126 721 279 1075 515 877 585 1501 1477 1744 2495 85 356 111 579 110 980
0 338 -11 479 -60 750 -163 895 -619 1720 -1287 2330 -491 449 -1064 769
-1691 945 -253 71 -540 122 -809 144 -116 10 -489 12 -612 4z m479 -1733 c660
-48 1163 -391 1331 -907 90 -276 66 -602 -61 -832 -98 -176 -183 -275 -439
-510 -93 -86 -172 -158 -175 -161 -3 -3 -67 -61 -144 -130 -279 -251 -324
-326 -396 -655 -38 -172 -91 -257 -192 -308 -146 -73 -343 -46 -460 62 -81 74
-118 183 -118 344 0 240 63 447 198 652 56 86 286 318 527 531 217 193 285
263 348 356 61 94 88 165 94 259 13 175 -42 316 -171 445 -90 90 -178 140
-301 171 -104 25 -333 23 -438 -6 -175 -47 -286 -136 -391 -315 -66 -111 -84
-150 -147 -324 -75 -209 -131 -287 -248 -345 -61 -30 -72 -32 -171 -32 -99 0
-109 2 -173 33 -131 64 -232 201 -244 329 -12 131 40 350 123 515 158 317 464
582 833 723 143 54 359 98 536 108 109 7 145 6 279 -3z m-104 -3954 c148 -39
276 -161 322 -308 38 -126 18 -305 -46 -406 -39 -62 -122 -131 -202 -169 -67
-32 -88 -37 -172 -41 -115 -5 -197 12 -281 60 -125 72 -203 189 -224 334 -34
244 111 465 346 529 68 18 189 19 257 1z"/>
</g>
</svg>
